[h264 @ 0x55fd34c1b080] Reinit context to 640x352, pix_fmt: yuv420p
Input #0, mov,mp4,m4a,3gp,3g2,mj2, from '/var/www/html/project/media/video/original/WhatsApp_Video_2022-03-25_at_09.55.29.mp4':
  Metadata:
    major_brand     : mp42
    minor_version   : 0
    compatible_brands: mp42isom
  Duration: 00:00:09.07, start: 0.000000, bitrate: 2112 kb/s
    Stream #0:0(und): Video: h264 (Constrained Baseline), 1 reference frame (avc1 / 0x31637661), yuv420p(tv, left), 640x352, 1927 kb/s, 29.40 fps, 29.43 tbr, 90k tbn, 180k tbc (default)
    Stream #0:1(und): Audio: aac (LC) (mp4a / 0x6134706D), 48000 Hz, stereo, fltp, 192 kb/s (default)
Input #1, png_pipe, from '/var/www/html/project/static/images/templates/logo.png':
  Duration: N/A, bitrate: N/A
    Stream #1:0: Video: png, 1 reference frame, rgba(pc), 1920x1080 [SAR 2835:2835 DAR 16:9], 25 tbr, 25 tbn, 25 tbc
[h264 @ 0x55fd34cf3600] Reinit context to 1280x720, pix_fmt: yuv420p
Input #2, mov,mp4,m4a,3gp,3g2,mj2, from '/var/www/html/project/static/images/templates/Codino.mp4':
  Metadata:
    major_brand     : mp42
    minor_version   : 1
    compatible_brands: isommp41mp42
    creation_time   : 2021-07-11T07:02:58.000000Z
  Duration: 00:00:02.00, start: 0.000000, bitrate: 1007 kb/s
    Stream #2:0(ita): Audio: aac (LC) (mp4a / 0x6134706D), 44100 Hz, stereo, fltp, 102 kb/s (default)
    Metadata:
      creation_time   : 2021-07-11T07:02:58.000000Z
      handler_name    : Core Media Audio
    Stream #2:1(und): Video: h264 (High), 1 reference frame (avc1 / 0x31637661), yuv420p(tv, bt709, progressive, left), 1280x720 [SAR 1:1 DAR 16:9], 813 kb/s, 25 fps, 25 tbr, 25k tbn, 50k tbc (default)
    Metadata:
      creation_time   : 2021-07-11T07:02:58.000000Z
      handler_name    : Core Media Video
[Parsed_scale_0 @ 0x55fd34cc9cc0] w:1280 h:720 flags:'bilinear' interl:0
[Parsed_scale_2 @ 0x55fd34cc6300] w:1280 h:720 flags:'bilinear' interl:0
[Parsed_scale_4 @ 0x55fd34c58440] w:1280 h:720 flags:'bilinear' interl:0
Stream mapping:
  Stream #0:0 (h264) -> scale
  Stream #0:1 (aac) -> concat:in0:a0
  Stream #1:0 (png) -> scale
  Stream #2:0 (aac) -> concat:in1:a0
  Stream #2:1 (h264) -> scale
  concat:out:v0 -> Stream #0:0 (libx264)
  concat:out:a0 -> Stream #0:1 (aac)
Press [q] to stop, [?] for help
[h264 @ 0x55fd34ce5700] Reinit context to 640x352, pix_fmt: yuv420p
[h264 @ 0x55fd350d3fc0] Reinit context to 1280x720, pix_fmt: yuv420p
[Parsed_scale_0 @ 0x55fd35b17980] w:1280 h:720 flags:'bilinear' interl:0
[Parsed_scale_2 @ 0x55fd35b1f900] w:1280 h:720 flags:'bilinear' interl:0
[Parsed_scale_4 @ 0x55fd35b212c0] w:1280 h:720 flags:'bilinear' interl:0
[graph 0 input from stream 0:0 @ 0x55fd35b25b80] w:640 h:352 pixfmt:yuv420p tb:1/90000 fr:45000/1529 sar:0/1 sws_param:flags=2
[graph 0 input from stream 1:0 @ 0x55fd35b26c40] w:1920 h:1080 pixfmt:rgba tb:1/25 fr:25/1 sar:2835/2835 sws_param:flags=2
[graph 0 input from stream 2:1 @ 0x55fd35b27cc0] w:1280 h:720 pixfmt:yuv420p tb:1/25000 fr:25/1 sar:1/1 sws_param:flags=2
[graph_0_in_0_1 @ 0x55fd35b28c40] tb:1/48000 samplefmt:fltp samplerate:48000 chlayout:0x3
[graph_0_in_2_0 @ 0x55fd35b29d80] tb:1/44100 samplefmt:fltp samplerate:44100 chlayout:0x3
[Parsed_concat_7 @ 0x55fd35b23c00] auto-inserting filter 'auto_resampler_0' between the filter 'graph_0_in_2_0' and the filter 'Parsed_concat_7'
[Parsed_scale_0 @ 0x55fd35b17980] w:640 h:352 fmt:yuv420p sar:0/1 -> w:1280 h:720 fmt:yuv420p sar:0/1 flags:0x2
[Parsed_setsar_1 @ 0x55fd34cca600] w:1280 h:720 sar:0/1 dar:16/9 -> sar:1/1 dar:16/9
[Parsed_scale_2 @ 0x55fd35b1f900] w:1920 h:1080 fmt:rgba sar:2835/2835 -> w:1280 h:720 fmt:yuva420p sar:1/1 flags:0x2
[Parsed_setsar_3 @ 0x55fd35b20680] w:1280 h:720 sar:1/1 dar:16/9 -> sar:1/1 dar:16/9
[Parsed_overlay_6 @ 0x55fd35b22a00] main w:1280 h:720 fmt:yuv420p overlay w:1280 h:720 fmt:yuva420p
[Parsed_overlay_6 @ 0x55fd35b22a00] [framesync @ 0x55fd35b22b68] Selected 1/90000 time base
[Parsed_overlay_6 @ 0x55fd35b22a00] [framesync @ 0x55fd35b22b68] Sync level 2
[Parsed_scale_4 @ 0x55fd35b212c0] w:1280 h:720 fmt:yuv420p sar:1/1 -> w:1280 h:720 fmt:yuv420p sar:1/1 flags:0x2
[Parsed_setsar_5 @ 0x55fd35b21e00] w:1280 h:720 sar:1/1 dar:16/9 -> sar:1/1 dar:16/9
[auto_resampler_0 @ 0x55fd35b315c0] ch:2 chl:stereo fmt:fltp r:44100Hz -> ch:2 chl:stereo fmt:fltp r:48000Hz
[libx264 @ 0x55fd34c58680] using SAR=1/1
[libx264 @ 0x55fd34c58680] using cpu capabilities: MMX2 SSE2Fast SSSE3 SSE4.2 AVX FMA3 BMI2 AVX2
[libx264 @ 0x55fd34c58680] profile High, level 3.1
[libx264 @ 0x55fd34c58680] 264 - core 155 r2917 0a84d98 - H.264/MPEG-4 AVC codec - Copyleft 2003-2018 - http://www.videolan.org/x264.html - options: cabac=1 ref=1 deblock=1:0:0 analyse=0x3:0x113 me=hex subme=2 psy=1 psy_rd=1.00:0.00 mixed_ref=0 me_range=16 chroma_me=1 trellis=0 8x8dct=1 cqm=0 deadzone=21,11 fast_pskip=1 chroma_qp_offset=0 threads=22 lookahead_threads=5 sliced_threads=0 nr=0 decimate=1 interlaced=0 bluray_compat=0 constrained_intra=0 bframes=3 b_pyramid=2 b_adapt=1 b_bias=0 direct=1 weightb=1 open_gop=0 weightp=1 keyint=250 keyint_min=25 scenecut=40 intra_refresh=0 rc_lookahead=10 rc=crf mbtree=1 crf=18.0 qcomp=0.60 qpmin=0 qpmax=69 qpstep=4 ip_ratio=1.40 aq=1:1.00
Output #0, mp4, to '/var/www/html/project/media/video/watermarks/WhatsApp_Video_2022-03-25_at_09.55.29.mp4':
  Metadata:
    major_brand     : mp42
    minor_version   : 0
    compatible_brands: mp42isom
    encoder         : Lavf58.29.100
    Stream #0:0: Video: h264 (libx264), 1 reference frame (avc1 / 0x31637661), yuv420p(progressive), 1280x720 [SAR 1:1 DAR 16:9], q=-1--1, 29.43 fps, 45k tbn, 29.43 tbc (default)
    Metadata:
      encoder         : Lavc58.54.100 libx264
    Side data:
      cpb: bitrate max/min/avg: 0/0/0 buffer size: 0 vbv_delay: -1
    Stream #0:1: Audio: aac (LC) (mp4a / 0x6134706D), 48000 Hz, stereo, fltp, delay 1024, 128 kb/s (default)
    Metadata:
      encoder         : Lavc58.54.100 aac
[Parsed_overlay_6 @ 0x55fd35b22a00] [framesync @ 0x55fd35b22b68] Sync level 0
[Parsed_concat_7 @ 0x55fd35b23c00] EOF on in0:v0, 1 streams left in segment.
[Parsed_concat_7 @ 0x55fd35b23c00] EOF on in0:a0, 0 streams left in segment.
[Parsed_concat_7 @ 0x55fd35b23c00] Segment finished at pts=9066666
[Parsed_concat_7 @ 0x55fd35b23c00] EOF on in1:v0, 1 streams left in segment.
[Parsed_concat_7 @ 0x55fd35b23c00] EOF on in1:a0, 0 streams left in segment.
[Parsed_concat_7 @ 0x55fd35b23c00] Segment finished at pts=11085353
No more output streams to write to, finishing.
frame=  315 fps=204 q=-1.0 Lsize=    4676kB time=00:00:11.09 bitrate=3453.2kbits/s speed=7.19x    
[AVIOContext @ 0x55fd34c19440] Statistics: 0 seeks, 4 writeouts
video:4503kB audio:162kB subtitle:0kB other streams:0kB global headers:0kB muxing overhead: 0.251209%
Input file #0 (/var/www/html/project/media/video/original/WhatsApp_Video_2022-03-25_at_09.55.29.mp4):
  Input stream #0:0 (video): 265 packets read (2171610 bytes); 265 frames decoded; 
  Input stream #0:1 (audio): 425 packets read (218495 bytes); 425 frames decoded (435200 samples); 
  Total: 690 packets (2390105 bytes) demuxed
Input file #1 (/var/www/html/project/static/images/templates/logo.png):
  Input stream #1:0 (video): 1 packets read (111578 bytes); 1 frames decoded; 
  Total: 1 packets (111578 bytes) demuxed
Input file #2 (/var/www/html/project/static/images/templates/Codino.mp4):
  Input stream #2:0 (audio): 89 packets read (26579 bytes); 87 frames decoded (89024 samples); 
  Input stream #2:1 (video): 50 packets read (203365 bytes); 50 frames decoded; 
  Total: 139 packets (229944 bytes) demuxed
Output file #0 (/var/www/html/project/media/video/watermarks/WhatsApp_Video_2022-03-25_at_09.55.29.mp4):
  Output stream #0:0 (video): 315 frames encoded; 315 packets muxed (4610750 bytes); 
  Output stream #0:1 (audio): 520 frames encoded (532097 samples); 521 packets muxed (165743 bytes); 
  Total: 836 packets (4776493 bytes) muxed
[AVIOContext @ 0x55fd34c58ec0] Statistics: 2 seeks, 22 writeouts
[libx264 @ 0x55fd34c58680] frame I:2     Avg QP:16.66  size: 72050
[libx264 @ 0x55fd34c58680] frame P:189   Avg QP:16.99  size: 19231
[libx264 @ 0x55fd34c58680] frame B:124   Avg QP:18.54  size:  6703
[libx264 @ 0x55fd34c58680] consecutive B-frames: 43.5%  7.6% 13.3% 35.6%
[libx264 @ 0x55fd34c58680] mb I  I16..4: 10.8% 38.1% 51.1%
[libx264 @ 0x55fd34c58680] mb P  I16..4:  4.9%  7.6%  0.8%  P16..4: 33.7% 17.5%  9.8%  0.0%  0.0%    skip:25.7%
[libx264 @ 0x55fd34c58680] mb B  I16..4:  1.4%  0.7%  0.0%  B16..8: 22.4%  6.6%  0.5%  direct:17.0%  skip:51.5%  L0:37.3% L1:41.9% BI:20.8%
[libx264 @ 0x55fd34c58680] 8x8 transform intra:53.6% inter:44.5%
[libx264 @ 0x55fd34c58680] coded y,uvDC,uvAC intra: 46.5% 51.2% 6.2% inter: 22.2% 16.3% 0.1%
[libx264 @ 0x55fd34c58680] i16 v,h,dc,p: 20% 60% 11%  9%
[libx264 @ 0x55fd34c58680] i8 v,h,dc,ddl,ddr,vr,hd,vl,hu: 12% 43% 21%  3%  4%  3%  5%  3%  6%
[libx264 @ 0x55fd34c58680] i4 v,h,dc,ddl,ddr,vr,hd,vl,hu: 20% 24% 16%  6%  7%  6%  8%  6%  8%
[libx264 @ 0x55fd34c58680] i8c dc,h,v,p: 44% 39%  8%  8%
[libx264 @ 0x55fd34c58680] Weighted P-Frames: Y:3.7% UV:0.0%
[libx264 @ 0x55fd34c58680] kb/s:3319.36
[aac @ 0x55fd34c4a540] Qavg: 6566.997
[AVIOContext @ 0x55fd34c223c0] Statistics: 2394562 bytes read, 0 seeks
[AVIOContext @ 0x55fd34c491c0] Statistics: 111578 bytes read, 0 seeks
[AVIOContext @ 0x55fd34d3cb80] Statistics: 1530915 bytes read, 42 seeks
